<svg width="400" height="300" viewBox="0 0 400 300" xmlns="http://www.w3.org/2000/svg">
  <defs>
    <linearGradient id="skyGradient" x1="0%" y1="0%" x2="0%" y2="100%">
      <stop offset="0%" style="stop-color:#87CEEB;stop-opacity:1" />
      <stop offset="100%" style="stop-color:#E0F6FF;stop-opacity:1" />
    </linearGradient>
    <linearGradient id="grassGradient" x1="0%" y1="0%" x2="0%" y2="100%">
      <stop offset="0%" style="stop-color:#8FBC8F;stop-opacity:1" />
      <stop offset="100%" style="stop-color:#228B22;stop-opacity:1" />
    </linearGradient>
    <linearGradient id="hedgeGradient" x1="0%" y1="0%" x2="0%" y2="100%">
      <stop offset="0%" style="stop-color:#90EE90;stop-opacity:1" />
      <stop offset="50%" style="stop-color:#32CD32;stop-opacity:1" />
      <stop offset="100%" style="stop-color:#228B22;stop-opacity:1" />
    </linearGradient>
    <radialGradient id="sunGradient" cx="50%" cy="50%" r="50%">
      <stop offset="0%" style="stop-color:#FFD700;stop-opacity:1" />
      <stop offset="70%" style="stop-color:#FFA500;stop-opacity:0.8" />
      <stop offset="100%" style="stop-color:#FF8C00;stop-opacity:0.3" />
    </radialGradient>
  </defs>
  
  <!-- Sky background -->
  <rect width="400" height="180" fill="url(#skyGradient)"/>
  
  <!-- Sun -->
  <circle cx="320" cy="60" r="25" fill="url(#sunGradient)"/>
  
  <!-- Distant hills -->
  <path d="M0,140 Q100,120 200,130 Q300,125 400,135 L400,180 L0,180 Z" fill="#9ACD32" opacity="0.6"/>
  
  <!-- Ground -->
  <rect x="0" y="180" width="400" height="120" fill="url(#grassGradient)"/>
  
  <!-- Main hedge row -->
  <ellipse cx="200" cy="200" rx="180" ry="35" fill="url(#hedgeGradient)"/>
  
  <!-- Individual hedge bushes -->
  <circle cx="80" cy="185" r="25" fill="#228B22"/>
  <circle cx="120" cy="190" r="30" fill="#32CD32"/>
  <circle cx="160" cy="185" r="28" fill="#228B22"/>
  <circle cx="200" cy="180" r="35" fill="#32CD32"/>
  <circle cx="240" cy="185" r="28" fill="#228B22"/>
  <circle cx="280" cy="190" r="30" fill="#32CD32"/>
  <circle cx="320" cy="185" r="25" fill="#228B22"/>
  
  <!-- Hedge highlights for depth -->
  <circle cx="80" cy="180" r="15" fill="#90EE90" opacity="0.7"/>
  <circle cx="120" cy="185" r="18" fill="#90EE90" opacity="0.7"/>
  <circle cx="160" cy="180" r="16" fill="#90EE90" opacity="0.7"/>
  <circle cx="200" cy="175" r="22" fill="#90EE90" opacity="0.7"/>
  <circle cx="240" cy="180" r="16" fill="#90EE90" opacity="0.7"/>
  <circle cx="280" cy="185" r="18" fill="#90EE90" opacity="0.7"/>
  <circle cx="320" cy="180" r="15" fill="#90EE90" opacity="0.7"/>
  
  <!-- Gardening tools -->
  <!-- Hedge trimmer -->
  <rect x="30" y="220" width="3" height="40" fill="#8B4513"/>
  <rect x="25" y="215" width="13" height="8" fill="#2F4F4F"/>
  <rect x="22" y="217" width="4" height="4" fill="#FF4500"/>
  
  <!-- Small decorative flowers -->
  <circle cx="350" cy="240" r="3" fill="#FF69B4"/>
  <circle cx="360" cy="245" r="2" fill="#FFB6C1"/>
  <circle cx="340" cy="250" r="2" fill="#FF1493"/>
  
  <!-- Grass texture -->
  <path d="M0,260 Q50,250 100,255 Q150,250 200,255 Q250,250 300,255 Q350,250 400,255 L400,300 L0,300 Z" fill="#228B22" opacity="0.3"/>
  
  <!-- Shadow under hedges -->
  <ellipse cx="200" cy="220" rx="160" ry="8" fill="#000000" opacity="0.2"/>
</svg>